<?xml version="1.0" standalone="no"?>
<!DOCTYPE svg PUBLIC "-//W3C//DTD SVG 20010904//EN"
 "http://www.w3.org/TR/2001/REC-SVG-20010904/DTD/svg10.dtd">
<svg version="1.0" xmlns="http://www.w3.org/2000/svg"
 width="1041.000000pt" height="1041.000000pt" viewBox="0 0 1041.000000 1041.000000"
 preserveAspectRatio="xMidYMid meet">
<metadata>
Created by potrace 1.14, written by Peter Selinger 2001-2017
</metadata>
<g transform="translate(0.000000,1041.000000) scale(0.100000,-0.100000)"
fill="#000000" stroke="none">
<path d="M4891 9707 c-173 -342 -403 -797 -511 -1012 -109 -214 -234 -463
-278 -551 l-81 -162 -113 38 c-159 53 -851 282 -863 285 -5 1 -17 4 -25 7 -39
14 -177 60 -720 238 -322 105 -594 195 -605 199 -33 14 -149 51 -158 51 -11 0
-37 81 441 -1375 116 -352 245 -744 286 -870 42 -127 76 -235 76 -241 0 -10
-69 -45 -1335 -684 -396 -200 -784 -396 -863 -436 l-142 -72 397 -200 c219
-110 552 -278 741 -374 188 -95 537 -271 775 -392 l434 -219 -37 -111 c-21
-61 -117 -352 -214 -646 -97 -294 -217 -659 -267 -810 -49 -151 -91 -279 -93
-285 -1 -5 -49 -151 -105 -323 -57 -172 -102 -314 -100 -316 2 -2 159 48 349
111 673 222 1041 343 1515 498 264 86 487 160 495 163 8 3 17 6 20 7 3 1 12 4
20 7 52 21 80 26 86 17 6 -10 8 -30 19 -190 l6 -96 -32 -13 c-42 -18 -89 -84
-89 -126 0 -71 49 -139 107 -150 18 -3 33 -7 33 -8 0 0 3 -39 6 -86 3 -47 7
-98 8 -115 2 -25 -4 -33 -33 -50 -75 -43 -97 -144 -46 -211 16 -20 45 -44 66
-52 29 -11 38 -20 38 -36 -1 -12 2 -67 6 -122 7 -99 7 -102 -15 -114 -31 -17
-59 -85 -54 -133 4 -44 43 -102 74 -112 12 -4 20 -16 21 -28 0 -12 2 -42 4
-67 15 -173 15 -174 -5 -195 -21 -23 -48 -83 -44 -102 1 -7 2 -24 3 -38 0 -15
19 -45 42 -70 l42 -45 1017 0 1017 0 33 22 c58 40 85 118 61 180 -5 13 -22 37
-37 53 -25 27 -28 36 -25 86 1 32 4 65 6 75 2 11 4 40 4 66 1 35 5 48 19 52
43 14 88 70 92 116 6 64 -1 83 -40 123 l-40 40 5 86 c7 104 14 145 23 149 32
11 80 43 95 64 48 65 26 171 -43 211 l-38 21 5 61 c2 33 6 74 8 90 2 17 4 42
4 58 1 19 6 27 19 27 31 0 81 38 100 77 21 41 22 96 2 134 -16 31 -59 69 -78
69 -12 0 -14 16 -8 103 7 121 16 190 24 198 4 4 86 -19 182 -51 170 -56 434
-143 1685 -555 330 -109 603 -199 608 -202 4 -2 6 4 4 14 -3 20 -144 457 -157
488 -5 11 -77 229 -160 485 -83 256 -155 474 -160 485 -4 11 -31 90 -58 175
-27 85 -100 306 -161 491 -61 185 -111 341 -111 347 0 10 53 45 70 47 3 0 10
3 15 7 13 8 1278 648 2032 1028 112 56 205 106 208 110 3 5 -131 77 -297 161
-167 83 -447 225 -623 314 -176 89 -564 285 -862 436 -299 151 -543 278 -543
284 0 6 40 132 89 280 143 435 505 1538 598 1820 46 143 94 286 105 318 11 32
18 60 16 63 -5 4 -81 -20 -658 -210 -173 -58 -652 -215 -1065 -351 -412 -136
-753 -249 -757 -251 -4 -3 -23 28 -43 68 -20 40 -132 262 -249 493 -117 231
-367 726 -555 1100 -189 374 -344 681 -345 682 -1 1 -143 -278 -315 -620z"/>
</g>
</svg>
