<?xml version="1.0" encoding="UTF-8"?>
<!-- Created with Inkscape (http://www.inkscape.org/) -->
<svg width="210mm" height="297mm" version="1.1" viewBox="0 0 210 297" xmlns="http://www.w3.org/2000/svg" xmlns:cc="http://creativecommons.org/ns#" xmlns:dc="http://purl.org/dc/elements/1.1/" xmlns:rdf="http://www.w3.org/1999/02/22-rdf-syntax-ns#">
 <title>logo</title>
 <path d="m136.17 89.759-7.9298 4.0034 2.7764 8.438-8.438-2.7763h-8.0068l-8.438 2.7763 2.7764-8.438-7.9298-4.0034 7.9298-4.0034-2.7764-8.438 8.438 2.7764 4.0034-7.9297 4.0034 7.9297 8.438-2.7764-2.7764 8.438z" fill="#800000"/>
 <path d="m118.57 81.293c-4.6754 7.2e-5 -8.4656 3.7902-8.4656 8.4656 0.16055 1.7487 0.64087 3.5028 1.4376 4.7253l3.0246 5.0059h5e-3l0.48679 7.2693h6.9122l0.60306-7.2693c1.0448-1.737 2.12-3.4846 3.1502-5.2142 0.85544-1.3515 1.3105-2.9176 1.3126-4.517-7e-5 -4.6756-3.7905-8.4658-8.4661-8.4656z" fill="#dcc97c"/>
 <g fill="none" stroke-linecap="round">
  <path d="m114.2 85.462a6.1272 6.1272 0 0 1 4.4054-1.8304 6.1272 6.1272 0 0 1 4.3828 1.8838" stroke="#fff"/>
  <g stroke="#800000">
   <path d="m114.73 100.94h7.6467"/>
   <path d="m114.88 102.71h7.3349"/>
   <path d="m115.11 104.49h6.8813"/>
   <path d="m115.29 106.26h6.5277"/>
  </g>
 </g>
 <metadata>
  <rdf:RDF>
   <cc:Work rdf:about="">
    <dc:title>logo</dc:title>
   </cc:Work>
  </rdf:RDF>
 </metadata>
</svg>
