<?xml version="1.0" encoding="UTF-8"?>
<!-- Created with Inkscape (http://www.inkscape.org/) -->
<svg width="30mm" height="30mm" version="1.1" viewBox="0 0 30 30" xmlns="http://www.w3.org/2000/svg">
 <g transform="matrix(.82718 0 0 .82718 -83.037 -59.28)" stroke-width="1.2089">
  <path d="m136.17 89.759-7.9298 4.0034 2.7764 8.438-8.438-2.7763h-8.0068l-8.438 2.7763 2.7764-8.438-7.9298-4.0034 7.9298-4.0034-2.7764-8.438 8.438 2.7764 4.0034-7.9297 4.0034 7.9297 8.438-2.7764-2.7764 8.438z" fill="#800000" stroke-width="1.2089"/>
  <path transform="scale(.26458)" d="m448.15 307.25c-17.671 2.7e-4 -31.996 14.325-31.996 31.996 0.60679 6.6092 2.4222 13.239 5.4336 17.859l11.432 18.92h0.0176l1.8398 27.475h26.125l2.2793-27.475c3.9487-6.5652 8.0127-13.17 11.906-19.707 3.2332-5.1079 4.9532-11.027 4.9609-17.072-2.8e-4 -17.672-14.326-31.997-31.998-31.996z" fill="#dcc97c"/>
  <g fill="none" stroke-linecap="round" stroke-width="1.2089">
   <path d="m114.2 85.462a6.1272 6.1272 0 0 1 4.4054-1.8304 6.1272 6.1272 0 0 1 4.3828 1.8838" stroke="#fff"/>
   <g stroke="#800000">
    <path d="m114.73 100.94h7.6467"/>
    <path d="m114.88 102.71h7.3349"/>
    <path d="m115.11 104.49h6.8813"/>
    <path d="m115.29 106.26h6.5277"/>
   </g>
  </g>
 </g>
</svg>
